<svg width="2613" height="2007" viewBox="0 0 2613 2007" fill="none" xmlns="http://www.w3.org/2000/svg">
<mask id="mask0_530_3507" style="mask-type:alpha" maskUnits="userSpaceOnUse" x="0" y="0" width="2613" height="2007">
<g clip-path="url(#clip0_530_3507)">
<path d="M1385.76 726.269C1385.76 905.787 1132.59 1066.11 986.173 1066.11C839.758 1066.11 -75.0274 436.476 -75.0274 256.959C-75.0274 77.441 1239.34 324.58 1385.76 324.58C1532.17 324.58 1385.76 546.751 1385.76 726.269Z" fill="url(#paint0_linear_530_3507)"/>
<path d="M1489.49 1598.11C1489.49 1777.63 1370.8 1923.16 1224.39 1923.16C1077.97 1923.16 262.312 1881.31 262.312 1701.8C262.312 1522.28 265.002 1051.33 411.417 1051.33C798.17 1257.76 1111.51 955.262 1367.62 1070.31C1585.07 1168 1444.43 1465.8 1489.49 1598.11Z" fill="url(#paint1_radial_530_3507)"/>
<path d="M1790.23 829.35C2185.28 1186.15 2002.79 1006.85 2342.11 997.811C2395.34 1008.07 2485.7 1008.55 2421.32 928.471C2340.84 828.369 2366.78 757.667 2266.21 648.605C2165.63 539.544 2104.38 428.739 1952.54 255.28C1800.7 81.8209 1789.02 224.808 1617.84 211.254C1446.66 197.699 1524.73 219.224 1288.55 470.906C1052.37 722.589 1395.17 472.547 1790.23 829.35Z" fill="#D9D9D9"/>
<path d="M1417.26 1390.58C888.584 1452.82 1143.7 1433.61 927.006 1694.88C884.23 1728.18 824.343 1795.85 927.006 1800.15C1055.33 1805.53 1091.45 1871.62 1239.76 1867.78C1388.06 1863.93 1511.78 1890.83 1742.31 1890.83C1972.84 1890.83 1872.94 1787.86 1995.89 1667.98C2118.84 1548.11 2051.22 1592.68 2017.41 1249.19C1983.6 905.702 1945.94 1328.34 1417.26 1390.58Z" fill="#D9D9D9"/>
</g>
</mask>
<g mask="url(#mask0_530_3507)">
<line x1="259.359" y1="1219.42" x2="1389.42" y2="1219.42" stroke="#353336" stroke-opacity="0.08" stroke-width="1.2607"/>
<line x1="259.359" y1="736.865" x2="1389.42" y2="736.865" stroke="#353336" stroke-opacity="0.08" stroke-width="1.2607"/>
<line x1="259.359" y1="978.145" x2="1389.42" y2="978.145" stroke="#353336" stroke-opacity="0.08" stroke-width="1.2607"/>
<line x1="259.359" y1="495.586" x2="1389.42" y2="495.586" stroke="#353336" stroke-opacity="0.08" stroke-width="1.2607"/>
<line x1="259.359" y1="254.303" x2="1389.42" y2="254.303" stroke="#353336" stroke-opacity="0.08" stroke-width="1.2607"/>
<line x1="259.359" y1="1098.79" x2="1389.42" y2="1098.79" stroke="#353336" stroke-opacity="0.08" stroke-width="1.2607"/>
<line x1="259.359" y1="616.224" x2="1389.42" y2="616.224" stroke="#353336" stroke-opacity="0.08" stroke-width="1.2607"/>
<line x1="259.359" y1="857.507" x2="1389.42" y2="857.507" stroke="#353336" stroke-opacity="0.08" stroke-width="1.2607"/>
<line x1="259.359" y1="374.947" x2="1389.42" y2="374.947" stroke="#353336" stroke-opacity="0.08" stroke-width="1.2607"/>
<line x1="259.359" y1="133.668" x2="1389.42" y2="133.668" stroke="#353336" stroke-opacity="0.08" stroke-width="1.2607"/>
<line x1="259.359" y1="1159.11" x2="1389.42" y2="1159.11" stroke="#353336" stroke-opacity="0.08" stroke-width="1.2607"/>
<line x1="259.359" y1="676.546" x2="1389.42" y2="676.546" stroke="#353336" stroke-opacity="0.08" stroke-width="1.2607"/>
<line x1="259.359" y1="917.826" x2="1389.42" y2="917.826" stroke="#353336" stroke-opacity="0.08" stroke-width="1.2607"/>
<line x1="259.359" y1="435.266" x2="1389.42" y2="435.266" stroke="#353336" stroke-opacity="0.08" stroke-width="1.2607"/>
<line x1="259.359" y1="193.987" x2="1389.42" y2="193.987" stroke="#353336" stroke-opacity="0.08" stroke-width="1.2607"/>
<line x1="259.359" y1="1038.47" x2="1389.42" y2="1038.47" stroke="#353336" stroke-opacity="0.08" stroke-width="1.2607"/>
<line x1="259.359" y1="555.905" x2="1389.42" y2="555.905" stroke="#353336" stroke-opacity="0.08" stroke-width="1.2607"/>
<line x1="259.359" y1="797.184" x2="1389.42" y2="797.184" stroke="#353336" stroke-opacity="0.08" stroke-width="1.2607"/>
<line x1="259.359" y1="314.625" x2="1389.42" y2="314.625" stroke="#353336" stroke-opacity="0.08" stroke-width="1.2607"/>
<line x1="259.359" y1="73.3456" x2="1389.42" y2="73.3456" stroke="#353336" stroke-opacity="0.08" stroke-width="1.2607"/>
<line x1="294.702" y1="233.1" x2="294.702" y2="1105.85" stroke="#353336" stroke-opacity="0.08" stroke-width="1.2607"/>
<line x1="777.264" y1="233.1" x2="777.264" y2="1105.85" stroke="#353336" stroke-opacity="0.08" stroke-width="1.2607"/>
<line x1="535.983" y1="233.1" x2="535.983" y2="1105.85" stroke="#353336" stroke-opacity="0.08" stroke-width="1.2607"/>
<line x1="1018.54" y1="233.1" x2="1018.54" y2="1105.85" stroke="#353336" stroke-opacity="0.08" stroke-width="1.2607"/>
<line x1="1259.82" y1="233.1" x2="1259.82" y2="1105.85" stroke="#353336" stroke-opacity="0.08" stroke-width="1.2607"/>
<line x1="415.343" y1="233.1" x2="415.343" y2="1105.85" stroke="#353336" stroke-opacity="0.08" stroke-width="1.2607"/>
<line x1="897.902" y1="233.1" x2="897.902" y2="1105.85" stroke="#353336" stroke-opacity="0.08" stroke-width="1.2607"/>
<line x1="656.624" y1="233.1" x2="656.624" y2="1105.85" stroke="#353336" stroke-opacity="0.08" stroke-width="1.2607"/>
<line x1="1139.18" y1="233.1" x2="1139.18" y2="1105.85" stroke="#353336" stroke-opacity="0.08" stroke-width="1.2607"/>
<line x1="1380.46" y1="233.1" x2="1380.46" y2="1105.85" stroke="#353336" stroke-opacity="0.08" stroke-width="1.2607"/>
<line x1="355.024" y1="233.1" x2="355.024" y2="1105.85" stroke="#353336" stroke-opacity="0.08" stroke-width="1.2607"/>
<line x1="837.583" y1="233.1" x2="837.583" y2="1105.85" stroke="#353336" stroke-opacity="0.08" stroke-width="1.2607"/>
<line x1="596.302" y1="233.1" x2="596.302" y2="1105.85" stroke="#353336" stroke-opacity="0.08" stroke-width="1.2607"/>
<line x1="1078.86" y1="233.1" x2="1078.86" y2="1105.85" stroke="#353336" stroke-opacity="0.08" stroke-width="1.2607"/>
<line x1="1320.14" y1="233.1" x2="1320.14" y2="1105.85" stroke="#353336" stroke-opacity="0.08" stroke-width="1.2607"/>
<line x1="475.665" y1="233.1" x2="475.665" y2="1105.85" stroke="#353336" stroke-opacity="0.08" stroke-width="1.2607"/>
<line x1="958.224" y1="233.1" x2="958.224" y2="1105.85" stroke="#353336" stroke-opacity="0.08" stroke-width="1.2607"/>
<line x1="716.942" y1="233.1" x2="716.942" y2="1105.85" stroke="#353336" stroke-opacity="0.08" stroke-width="1.2607"/>
<line x1="1199.5" y1="233.1" x2="1199.5" y2="1105.85" stroke="#353336" stroke-opacity="0.08" stroke-width="1.2607"/>
<line x1="1440.78" y1="233.1" x2="1440.78" y2="1105.85" stroke="#353336" stroke-opacity="0.08" stroke-width="1.2607"/>
</g>
<defs>
<linearGradient id="paint0_linear_530_3507" x1="558.158" y1="346.865" x2="1112.2" y2="641.942" gradientUnits="userSpaceOnUse">
<stop stop-color="white"/>
<stop offset="1" stop-color="white" stop-opacity="0"/>
</linearGradient>
<radialGradient id="paint1_radial_530_3507" cx="0" cy="0" r="1" gradientUnits="userSpaceOnUse" gradientTransform="translate(651.137 1605.74) rotate(-29.3932) scale(947.227 1628.01)">
<stop stop-color="white"/>
<stop offset="1" stop-color="white" stop-opacity="0"/>
</radialGradient>
<clipPath id="clip0_530_3507">
<rect width="3494.42" height="2684" fill="white" transform="scale(0.747601)"/>
</clipPath>
</defs>
</svg>
